<svg width="48" height="48" viewBox="0 0 48 48" fill="none" xmlns="http://www.w3.org/2000/svg">
<g clip-path="url(#clip0_341_16)">
<path fill-rule="evenodd" clip-rule="evenodd" d="M11.9829 12.1376L0 24C2.39681 26.3728 5.13479 28.3724 8.11997 29.9369C8.94509 32.1036 10.2384 34.1356 12 35.8794C18.6275 42.4402 29.3726 42.4402 36 35.8794C37.7616 34.1356 39.055 32.1036 39.8801 29.9368C42.8652 28.3724 45.6032 26.3728 48 24L36.0268 12.1472C36.0179 12.1383 36.009 12.1295 36 12.1206C29.3726 5.55981 18.6275 5.55981 12 12.1206C11.9943 12.1263 11.9886 12.1319 11.9829 12.1376ZM34.8534 32.0771C31.3614 33.2437 27.6956 33.8412 24 33.8412C20.3044 33.8412 16.6387 33.2437 13.1467 32.0771C13.5251 32.574 13.9428 33.0509 14.4 33.5035C19.702 38.7522 28.298 38.7522 33.6 33.5035C34.0572 33.0509 34.475 32.574 34.8534 32.0771ZM14.6461 14.2589C15.5465 14.8477 16.5038 15.3516 17.5056 15.7624C19.5646 16.6067 21.7714 17.0413 24 17.0413C26.2286 17.0413 28.4354 16.6067 30.4944 15.7624C31.4962 15.3516 32.4535 14.8477 33.354 14.2589C28.1182 9.32705 19.8818 9.32706 14.6461 14.2589Z" fill="#18181B"/>
</g>
<defs>
<clipPath id="clip0_341_16">
<rect width="48" height="33.6" fill="white" transform="translate(0 7.20001)"/>
</clipPath>
</defs>
</svg>
