<svg width="150" height="26" viewBox="0 0 150 26" fill="none" xmlns="http://www.w3.org/2000/svg">
<g clip-path="url(#clip0_355_7)">
<path d="M1.66669 8.83334L10 13L18.3334 8.83334L10 4.66667L5.83335 6.75001L1.66669 8.83334Z" fill="#09090B" stroke="#09090B" stroke-width="1.66667" stroke-linecap="round" stroke-linejoin="round"/>
<path d="M1.66669 17.1667L10 21.3333L18.3334 17.1667" stroke="#09090B" stroke-width="1.66667" stroke-linecap="round" stroke-linejoin="round"/>
<path d="M1.66669 13L10 17.1667L18.3334 13" stroke="#09090B" stroke-width="1.66667" stroke-linecap="round" stroke-linejoin="round"/>
</g>
<path d="M35.074 21.252C31.42 21.252 28.936 18.624 28.936 14.232C28.936 9.84 31.42 7.356 35.074 7.356C38.728 7.356 41.212 9.858 41.212 14.232C41.212 18.624 38.728 21.252 35.074 21.252ZM35.074 18.48C36.838 18.48 37.936 16.824 37.936 14.232C37.936 11.64 36.838 10.11 35.074 10.11C33.31 10.11 32.23 11.64 32.23 14.232C32.23 16.824 33.31 18.48 35.074 18.48ZM43.4464 21V10.758H46.0564L46.2904 12.54H46.3444C47.1004 11.172 48.2344 10.506 49.2604 10.506C49.8724 10.506 50.2144 10.596 50.5024 10.722L49.9804 13.476C49.6024 13.386 49.2964 13.314 48.8464 13.314C48.0904 13.314 47.1724 13.8 46.6504 15.15V21H43.4464ZM56.106 21.252C53.154 21.252 50.886 19.272 50.886 15.87C50.886 12.558 53.28 10.506 55.746 10.506C58.698 10.506 60.138 12.648 60.138 15.438C60.138 16.014 60.066 16.572 59.994 16.824H53.982C54.27 18.228 55.242 18.804 56.538 18.804C57.276 18.804 57.96 18.588 58.698 18.156L59.76 20.082C58.698 20.838 57.294 21.252 56.106 21.252ZM53.928 14.718H57.42C57.42 13.71 56.97 12.954 55.8 12.954C54.918 12.954 54.144 13.512 53.928 14.718ZM65.8827 21.252C63.3087 21.252 62.2647 19.614 62.2647 17.202V13.26H60.8787V10.884L62.4627 10.758L62.8227 8.04H65.4687V10.758H67.8807V13.26H65.4687V17.166C65.4687 18.3 66.0087 18.75 66.7647 18.75C67.0887 18.75 67.4487 18.642 67.7007 18.552L68.2047 20.874C67.6647 21.036 66.9267 21.252 65.8827 21.252ZM73.8025 21.252C71.1925 21.252 68.7805 19.272 68.7805 15.87C68.7805 12.486 71.1925 10.506 73.8025 10.506C76.3945 10.506 78.8065 12.486 78.8065 15.87C78.8065 19.272 76.3945 21.252 73.8025 21.252ZM73.8025 18.66C74.9905 18.66 75.5305 17.58 75.5305 15.87C75.5305 14.178 74.9905 13.098 73.8025 13.098C72.5965 13.098 72.0565 14.178 72.0565 15.87C72.0565 17.58 72.5965 18.66 73.8025 18.66ZM80.8175 21V6.618H83.9675V14.61H84.0575L87.0815 10.758H90.5915L87.0275 15.024L90.8435 21H87.3695L85.1555 17.112L83.9675 18.462V21H80.8175ZM94.8119 21.252C92.5619 21.252 91.6079 19.65 91.6079 17.094V10.758H94.8119V16.698C94.8119 18.102 95.1899 18.516 95.9999 18.516C96.7199 18.516 97.1699 18.228 97.7099 17.472V10.758H100.914V21H98.3039L98.0699 19.596H97.9979C97.1519 20.604 96.1979 21.252 94.8119 21.252ZM105.792 21V10.272H102.174V7.59H112.65V10.272H109.014V21H105.792ZM117.168 21.252C114.558 21.252 112.146 19.272 112.146 15.87C112.146 12.486 114.558 10.506 117.168 10.506C119.76 10.506 122.172 12.486 122.172 15.87C122.172 19.272 119.76 21.252 117.168 21.252ZM117.168 18.66C118.356 18.66 118.896 17.58 118.896 15.87C118.896 14.178 118.356 13.098 117.168 13.098C115.962 13.098 115.422 14.178 115.422 15.87C115.422 17.58 115.962 18.66 117.168 18.66ZM128.629 21.252C126.019 21.252 123.607 19.272 123.607 15.87C123.607 12.486 126.019 10.506 128.629 10.506C131.221 10.506 133.633 12.486 133.633 15.87C133.633 19.272 131.221 21.252 128.629 21.252ZM128.629 18.66C129.817 18.66 130.357 17.58 130.357 15.87C130.357 14.178 129.817 13.098 128.629 13.098C127.423 13.098 126.883 14.178 126.883 15.87C126.883 17.58 127.423 18.66 128.629 18.66ZM138.56 21.252C136.364 21.252 135.644 19.812 135.644 17.67V6.618H138.848V17.778C138.848 18.462 139.154 18.66 139.406 18.66C139.514 18.66 139.586 18.66 139.766 18.624L140.144 20.982C139.802 21.126 139.28 21.252 138.56 21.252ZM144.68 21.252C143.348 21.252 141.782 20.676 140.738 19.812L142.16 17.814C143.096 18.516 143.942 18.894 144.752 18.894C145.598 18.894 145.958 18.588 145.958 18.084C145.958 17.472 144.968 17.184 143.924 16.77C142.7 16.284 141.314 15.456 141.314 13.746C141.314 11.82 142.88 10.506 145.274 10.506C146.876 10.506 148.064 11.154 148.928 11.82L147.506 13.728C146.768 13.206 146.048 12.864 145.382 12.864C144.644 12.864 144.302 13.116 144.302 13.602C144.302 14.214 145.184 14.448 146.246 14.826C147.524 15.312 148.946 16.05 148.946 17.904C148.946 19.794 147.47 21.252 144.68 21.252Z" fill="#09090B"/>
<defs>
<clipPath id="clip0_355_7">
<rect width="20" height="20" fill="white" transform="translate(0 3)"/>
</clipPath>
</defs>
</svg>
